<?xml version="1.0" standalone="no"?>
<!DOCTYPE svg PUBLIC "-//W3C//DTD SVG 20010904//EN"
 "http://www.w3.org/TR/2001/REC-SVG-20010904/DTD/svg10.dtd">
<svg version="1.0" xmlns="http://www.w3.org/2000/svg"
 width="761.000000pt" height="761.000000pt" viewBox="0 0 761.000000 761.000000"
 preserveAspectRatio="xMidYMid meet">
<metadata>
Created by potrace 1.16, written by Peter Selinger 2001-2019
</metadata>
<g transform="translate(0.000000,761.000000) scale(0.099089,-0.074316)"
fill="#000000" stroke="none">
<path d="M0 7750 l0 -2490 28 -1 27 -1 -27 -10 -28 -10 0 -2619 0 -2619 968 2
967 3 -3 25 c-1 13 0 31 4 40 12 29 15 122 4 115 -5 -3 -11 -23 -11 -43 -1
-27 -3 -30 -6 -12 -3 14 -14 33 -26 42 -12 10 -16 18 -9 18 7 0 12 14 12 36 0
21 4 33 10 29 6 -3 10 0 10 8 0 8 -8 14 -18 13 -13 -1 -16 6 -15 31 2 17 -2
35 -7 38 -15 9 -12 55 4 61 8 3 13 20 13 43 0 47 11 70 24 50 5 -8 9 -9 9 -3
0 6 -7 17 -15 24 -13 11 -13 14 0 27 15 15 21 78 8 86 -5 2 -2 2 5 1 6 -2 12
3 12 10 0 8 7 17 16 20 11 4 14 13 10 30 -5 19 -1 25 15 29 19 5 21 11 16 49
-3 24 -4 37 -1 31 3 -7 9 -13 14 -13 10 0 40 57 40 77 0 7 7 13 15 13 8 0 15
-7 15 -16 0 -8 5 -12 10 -9 6 4 8 11 5 16 -4 5 1 9 9 9 9 0 16 -4 16 -10 0
-22 19 -8 35 26 9 20 25 44 34 53 10 10 21 26 24 35 4 11 13 16 22 12 8 -3 15
0 15 6 0 6 2 9 5 7 2 -3 2 -15 -2 -28 -4 -17 -8 -19 -14 -9 -5 7 -9 8 -9 2 0
-6 9 -19 20 -29 19 -17 20 -17 28 6 5 13 12 23 16 22 16 -7 26 -2 26 12 0 8 7
15 15 15 8 0 15 -6 15 -12 0 -7 14 -21 31 -30 30 -17 30 -17 24 2 -4 13 2 35
15 58 12 20 17 38 12 40 -6 2 -6 15 1 37 9 30 15 35 43 35 l32 0 -15 -42 c-8
-24 -18 -45 -21 -48 -11 -8 -32 -49 -32 -61 0 -6 9 -9 20 -6 13 3 21 -1 25
-14 4 -12 16 -19 32 -19 41 0 10 -28 -35 -32 -30 -2 -40 -9 -51 -33 -8 -16
-17 -32 -21 -35 -12 -9 -22 -62 -10 -55 7 4 14 -2 17 -14 7 -27 24 -27 52 2
20 22 21 25 5 38 -13 11 -18 11 -21 2 -6 -18 -23 -16 -23 2 0 8 5 15 10 15 6
0 10 7 10 15 0 8 4 15 10 15 5 0 7 -6 4 -13 -4 -10 3 -12 26 -9 19 3 30 0 30
-8 0 -7 -8 -9 -20 -5 -11 4 -20 2 -20 -4 0 -6 5 -11 11 -11 14 0 3 -49 -16
-70 -7 -8 -12 -34 -11 -57 1 -32 -3 -42 -13 -40 -20 3 -51 -54 -38 -71 6 -8 5
-17 -3 -27 -6 -8 -9 -19 -5 -25 4 -7 -2 -18 -14 -26 -13 -9 -21 -26 -21 -42 0
-16 -9 -35 -21 -46 -17 -14 -19 -20 -8 -26 7 -5 18 -5 25 1 7 6 17 2 30 -13
l19 -21 -31 6 c-36 7 -49 0 -34 -18 8 -9 6 -14 -5 -19 -11 -4 -14 -2 -9 6 4 7
3 8 -4 4 -7 -4 -12 -13 -12 -20 0 -8 -7 -19 -15 -26 -8 -7 -15 -21 -15 -32 0
-24 -42 -41 -53 -21 -5 8 -16 11 -28 8 -11 -4 -19 -2 -19 5 0 22 -19 -1 -44
-55 -14 -29 -31 -57 -36 -60 -6 -4 -8 -15 -5 -26 4 -11 2 -19 -5 -19 -6 0 -9
-4 -5 -9 3 -5 0 -13 -6 -17 -9 -5 -10 1 -5 20 4 15 2 26 -3 26 -6 0 -8 7 -5
15 5 11 -1 15 -21 15 -23 0 -26 -4 -24 -27 3 -45 0 -69 -9 -56 -4 6 -20 13
-37 15 -29 3 -32 -2 -26 -52 1 -6 975 -10 2861 -10 l2860 0 0 895 c0 709 -3
895 -12 895 -9 0 -8 3 2 10 30 19 -6 25 -146 25 -79 0 -144 3 -144 8 0 4 -7 7
-15 7 -8 0 -15 5 -15 10 0 6 -7 10 -16 10 -12 0 -15 -7 -11 -26 4 -24 2 -25
-29 -21 -19 3 -37 1 -40 -4 -3 -5 -17 -8 -32 -7 -69 4 -122 -2 -122 -16 0 -15
45 -30 60 -21 5 3 12 0 16 -6 4 -7 3 -9 -2 -6 -6 3 -10 -35 -10 -94 1 -54 4
-99 8 -99 5 0 8 17 9 38 2 70 4 77 18 74 11 -2 11 2 -2 21 -9 14 -13 34 -10
46 6 24 11 25 33 10 11 -8 12 -12 2 -16 -13 -5 -17 -23 -4 -23 4 0 13 4 21 9
12 8 12 12 2 24 -10 13 -8 18 11 31 12 9 29 16 38 16 14 0 82 -21 120 -37 8
-3 18 -6 21 -5 3 0 43 -12 90 -28 l84 -28 18 -73 c11 -47 15 -94 12 -129 -3
-30 -5 -96 -6 -146 -1 -96 -11 -131 -29 -104 -9 13 -10 13 -10 0 0 -9 -14 -24
-32 -35 -77 -45 -138 -118 -192 -232 -14 -30 -40 -31 -31 -2 5 15 4 19 -4 15
-6 -4 -11 -14 -11 -22 0 -8 -4 -14 -8 -14 -5 0 -9 20 -9 45 0 28 4 41 9 33 14
-22 9 2 -7 32 -9 17 -12 30 -7 30 14 0 42 -35 42 -53 0 -9 5 -17 10 -17 16 0
12 14 -15 54 -14 21 -23 42 -19 47 3 6 -2 9 -12 7 -16 -2 -19 4 -20 39 -1 26
4 44 12 47 14 5 8 39 -13 72 -12 18 -12 22 0 27 12 5 11 14 -4 60 -20 60 -30
147 -17 147 5 0 6 5 2 11 -4 7 -7 21 -8 32 -1 27 -26 35 -26 9 0 -29 -11 -53
-21 -46 -5 3 -9 -2 -9 -11 0 -8 10 -20 23 -26 21 -9 21 -9 -3 -4 -14 2 -28 5
-32 5 -4 0 -8 10 -10 22 -4 30 -27 35 -26 6 1 -13 1 -45 0 -72 -2 -37 -5 -46
-14 -38 -10 8 -13 4 -14 -13 -1 -13 4 -26 12 -29 19 -7 18 -36 -2 -36 -8 0
-13 -4 -9 -10 3 -5 7 -32 9 -60 2 -40 0 -50 -13 -50 -14 0 -14 -2 -1 -10 13
-9 13 -12 -3 -24 -12 -10 -17 -21 -13 -34 4 -13 1 -22 -9 -26 -20 -7 -19 -23
5 -53 26 -34 26 -51 -1 -27 -40 36 -45 70 -48 289 -3 233 -13 377 -31 415 -8
19 -23 29 -55 36 -52 12 -58 5 -37 -45 11 -27 15 -106 18 -345 l4 -311 -22 40
c-21 39 -22 39 -28 15 -4 -20 -15 -27 -50 -36 -31 -7 -39 -12 -27 -17 15 -6
16 -10 5 -27 -7 -11 -16 -20 -21 -20 -4 0 -6 4 -2 9 3 5 1 12 -5 16 -5 3 -10
17 -10 30 0 17 6 25 22 27 28 4 33 55 5 64 -15 5 -17 13 -13 42 3 21 10 80 16
132 7 52 16 111 21 131 5 20 9 72 10 115 0 44 4 111 9 149 13 93 13 98 -6 240
-3 22 -7 56 -9 75 -1 19 -3 41 -4 48 0 7 -5 11 -9 8 -9 -5 -1 55 17 134 11 51
4 129 -13 132 -6 0 -16 2 -22 2 -6 1 -18 6 -25 12 -14 11 -129 59 -179 74 -91
29 -203 60 -215 60 -9 0 -23 4 -33 9 -9 5 -44 15 -77 22 -33 6 -139 32 -235
57 -96 24 -194 49 -218 54 -23 5 -40 13 -38 16 2 4 -10 7 -27 8 -18 0 -67 11
-109 24 -62 18 -78 27 -78 42 0 11 -5 16 -10 13 -6 -4 -8 -11 -5 -16 8 -12 6
-12 -60 5 -71 19 -73 21 -68 51 3 13 8 23 12 21 3 -2 7 41 9 97 2 56 6 105 9
110 3 5 27 6 54 3 47 -6 48 -6 60 29 7 19 16 35 20 35 8 0 5 -29 -6 -54 -9
-21 11 -39 34 -31 8 3 17 2 20 -2 7 -10 267 -73 297 -73 18 0 21 6 20 40 -1
41 -11 53 -19 22 -3 -9 -5 -3 -6 15 -1 26 2 30 18 26 16 -4 19 -14 19 -55 1
-28 5 -54 9 -58 9 -8 59 -20 313 -80 96 -22 191 -45 211 -50 52 -14 54 -13 54
23 0 38 52 91 79 81 15 -6 15 -8 -1 -20 -17 -12 -17 -14 2 -28 26 -20 55 -20
55 -1 0 19 5 19 38 -2 42 -27 53 -45 47 -80 -7 -38 9 -51 35 -28 11 10 28 15
39 12 12 -3 22 1 25 10 8 19 -46 73 -72 73 -11 0 -25 7 -32 15 -16 19 -6 19
49 0 75 -27 74 -19 51 -236 -11 -106 -18 -194 -16 -196 5 -5 56 112 56 127 0
8 7 21 15 30 9 10 20 46 26 81 6 35 11 64 12 65 2 2 123 -15 154 -21 14 -3 24
-15 28 -35 5 -21 14 -32 31 -36 13 -3 24 -11 24 -16 0 -11 97 -6 190 11 30 5
92 10 137 10 76 1 81 2 76 21 -3 10 -13 22 -23 25 -23 7 -72 -4 -65 -16 7 -10
-35 -17 -138 -23 l-78 -4 28 28 c19 19 57 37 113 55 47 14 94 30 105 35 11 5
33 11 49 15 46 10 18 21 -89 34 -55 7 -113 20 -129 28 -16 8 -52 22 -80 30
-28 8 -67 24 -86 36 -39 23 -100 77 -100 89 0 17 56 2 77 -22 l22 -25 -6 36
c-3 22 -1 39 6 43 7 5 11 -3 11 -22 0 -31 19 -55 41 -50 7 2 18 -12 25 -31 7
-22 13 -29 17 -20 4 11 6 10 6 -3 1 -12 9 -16 31 -16 25 1 30 5 30 25 0 19 5
23 30 23 17 0 30 -4 30 -10 0 -5 16 -12 35 -16 19 -3 38 -10 41 -15 3 -5 10
-7 15 -3 5 3 16 0 24 -6 8 -6 19 -9 25 -5 6 4 17 1 25 -5 8 -6 19 -9 25 -5 6
4 20 -1 31 -11 19 -17 19 -15 19 134 0 151 0 152 -22 153 -13 1 -28 1 -35 0
-12 -2 -10 74 3 185 4 37 7 41 29 36 24 -4 25 -3 25 58 0 59 -1 62 -21 57 -22
-6 -22 -5 -15 116 3 67 9 183 12 257 3 74 9 196 14 270 9 120 12 356 4 305 -5
-35 -23 -281 -44 -590 -28 -407 -23 -380 -68 -398 -37 -15 -37 -15 -43 12 -4
14 -7 40 -8 56 -1 27 4 33 34 44 45 16 45 31 1 24 -41 -7 -40 -13 -55 212 -36
522 -45 635 -49 631 -3 -4 11 -419 25 -712 l6 -132 -24 -7 c-13 -4 -37 -13
-54 -20 -99 -44 -125 -53 -125 -47 0 7 14 257 25 432 9 155 17 475 12 470 -4
-4 -19 -207 -30 -402 -1 -16 -5 -28 -10 -28 -11 0 -114 76 -124 92 -4 7 -13
81 -20 163 l-12 150 5 -148 c2 -81 2 -147 -2 -147 -3 0 -28 17 -55 38 -27 20
-58 44 -70 53 l-22 15 12 230 c7 126 17 252 23 279 7 28 11 81 11 118 -1 64
16 125 30 110 4 -3 7 -1 7 6 0 8 7 11 15 7 8 -3 15 -1 15 3 0 5 23 21 52 35
44 22 60 25 107 20 62 -7 79 -17 92 -51 7 -18 14 -22 37 -17 26 5 29 3 41 -36
6 -22 9 -50 6 -61 -4 -11 -3 -48 1 -82 l8 -62 8 65 c4 36 5 71 2 79 -3 10 2 9
16 -4 11 -10 20 -23 20 -29 0 -7 38 -19 88 -28 48 -8 95 -19 105 -23 16 -7 17
6 17 186 l0 194 -44 28 c-52 33 -159 114 -198 150 -17 16 -26 32 -22 41 7 17
44 22 44 6 0 -5 6 -7 14 -4 8 3 29 -8 47 -24 19 -16 52 -39 75 -50 22 -11 46
-28 53 -36 18 -21 31 -20 31 2 0 10 -12 25 -27 34 -40 23 -107 78 -97 78 5 0
33 -18 62 -40 29 -22 55 -40 57 -40 3 0 5 155 5 345 l0 345 -54 0 -53 0 -7 41
c-4 22 -4 44 -1 48 2 5 5 196 5 424 1 229 3 438 7 466 l6 49 44 -19 c25 -10
47 -19 49 -19 2 0 3 361 2 803 0 441 -3 786 -5 767 -3 -19 -9 -39 -15 -45 -7
-7 -8 3 -3 33 4 27 3 42 -4 42 -5 0 -12 28 -14 63 -2 34 -4 -24 -5 -130 -2
-170 -4 -192 -18 -186 -14 5 -15 39 -8 322 3 174 10 323 15 331 6 10 8 3 9
-22 0 -21 5 -38 10 -38 6 0 10 18 10 40 0 22 4 40 10 40 5 0 11 -56 13 -132 1
-73 4 210 5 630 l2 762 -254 0 c-248 0 -254 0 -259 -21 -5 -18 -11 -20 -49
-14 -39 6 -46 4 -72 -24 -17 -17 -36 -31 -43 -31 -24 0 -63 -32 -63 -51 0 -11
-7 -19 -16 -19 -11 0 -8 -9 13 -37 15 -21 35 -45 44 -53 8 -8 18 -22 21 -31 5
-13 2 -16 -14 -11 -17 4 -20 2 -15 -12 5 -12 3 -16 -5 -13 -7 2 -21 0 -31 -5
-14 -7 -15 -13 -6 -30 13 -25 19 -126 8 -130 -16 -6 -13 -84 4 -108 9 -14 17
-28 17 -33 0 -4 25 -31 56 -60 31 -29 75 -71 97 -94 22 -24 46 -43 54 -43 13
0 18 -176 13 -452 -1 -44 3 -79 9 -83 6 -3 11 -16 10 -28 -1 -20 -2 -20 -9 3
-7 21 -8 18 -9 -18 -1 -24 4 -52 9 -63 6 -11 7 -19 1 -19 -11 0 -15 -197 -3
-204 8 -4 8 -14 3 -58 -1 -4 -9 -4 -18 -1 -21 7 -198 133 -290 206 -44 34 -68
47 -82 42 -11 -3 -23 0 -27 6 -5 9 -9 8 -13 -4 -6 -17 -30 -3 -193 113 -81 59
-93 66 -84 52 3 -6 57 -47 119 -90 61 -44 124 -91 139 -105 l27 -25 -6 -243
c-3 -134 -10 -252 -15 -262 -5 -9 -6 -23 -3 -30 4 -6 0 -5 -7 4 -7 9 -34 19
-58 22 -60 7 -120 29 -120 44 0 7 -9 13 -20 13 -11 0 -23 6 -26 14 -8 21 -42
27 -47 7 -3 -9 -5 42 -6 113 0 71 -4 126 -8 122 -10 -9 -9 -8 -13 -141 -1 -75
-5 -100 -10 -80 -4 17 -8 23 -9 15 -1 -12 -3 -13 -10 -1 -5 8 -16 11 -30 6
-24 -7 -61 17 -61 40 0 7 -9 15 -21 18 -11 3 -23 15 -26 26 -3 12 -9 21 -14
21 -4 0 -11 21 -15 46 -11 74 -84 195 -97 161 -3 -7 -6 17 -7 53 -1 36 -4 59
-7 53 -3 -10 -9 -8 -21 4 -15 14 -17 45 -19 222 -2 113 1 212 5 219 6 9 14 6
32 -10 14 -13 27 -23 30 -23 3 0 16 -8 30 -18 14 -10 67 -45 118 -79 51 -33
106 -73 122 -88 17 -15 32 -24 35 -20 5 8 -13 23 -162 132 -32 23 -60 44 -63
48 -3 3 -27 21 -55 40 -102 68 -95 47 -95 270 0 109 3 218 6 243 6 39 9 44 20
32 8 -7 15 -24 15 -37 1 -13 5 -6 9 17 6 35 7 36 9 10 2 -37 42 -61 71 -43 29
19 49 189 53 451 l2 157 -610 0 -611 0 -199 -94 c-110 -51 -210 -96 -222 -100
-14 -4 -20 -12 -16 -22 3 -8 -1 -14 -8 -14 -9 0 -10 -3 -4 -8 6 -4 18 -19 28
-34 17 -27 16 -27 -15 -57 -28 -26 -30 -31 -15 -37 10 -3 26 -4 37 -1 26 7 64
-53 57 -88 -3 -17 0 -25 10 -25 8 0 11 -4 8 -10 -9 -14 8 -40 36 -53 19 -10
25 -22 27 -55 2 -23 7 -42 12 -42 4 0 10 -38 11 -84 3 -63 8 -89 22 -104 17
-18 30 -119 20 -149 -5 -13 -34 -6 -45 11 -4 7 -13 5 -25 -6 -10 -9 -27 -18
-38 -20 -12 -2 -21 -13 -23 -26 -2 -12 -10 -22 -18 -22 -12 0 -13 -8 -8 -35 3
-19 2 -41 -4 -48 -5 -6 -13 -27 -17 -44 -7 -33 -25 -46 -25 -18 0 8 -9 15 -20
15 -12 0 -26 12 -36 31 -11 23 -18 28 -24 19 -6 -9 -11 -7 -19 9 -14 24 -39
28 -47 6 -4 -8 -10 -15 -16 -15 -5 0 -6 5 -3 10 4 6 -11 10 -39 10 -26 0 -46
-5 -49 -12 -3 -7 -6 0 -6 16 -1 20 -5 27 -15 23 -11 -4 -16 7 -21 42 -9 63
-24 88 -26 41 -1 -19 -1 -39 0 -44 1 -5 -12 5 -30 22 -25 25 -42 32 -71 32
-21 0 -41 -1 -45 -2 -5 -2 -10 22 -13 52 -3 30 -10 -287 -15 -705 -9 -744 -10
-817 -13 -862 -3 -39 -23 -25 -22 15 2 44 -14 587 -40 1367 -5 160 -10 355
-10 435 0 84 -4 139 -9 131 -7 -10 -12 -10 -30 5 -11 10 -21 24 -21 30 0 13
-32 26 -70 28 -14 0 -35 11 -47 24 -24 23 -43 29 -43 13 0 -20 -42 -18 -75 5
-20 13 -39 24 -43 24 -4 0 -20 14 -35 31 -37 42 -38 41 -108 -103 -5 -10 -9
-27 -9 -38 0 -23 -29 -60 -47 -60 -7 0 -13 7 -13 16 0 9 -5 34 -12 55 -13 44
-38 53 -38 14 0 -28 -16 -31 -44 -10 -11 8 -37 15 -59 15 -31 0 -47 7 -78 37
-24 23 -39 46 -39 61 0 13 -4 21 -8 18 -5 -3 -8 5 -8 17 1 16 -8 25 -34 34
-19 6 -31 12 -27 12 5 1 -6 19 -23 41 -17 22 -28 40 -23 40 4 0 9 54 10 120
l1 120 -1564 0 -1564 0 0 -2490z m5662 1905 c24 -28 92 -69 130 -78 13 -4 72
-54 132 -113 86 -85 104 -109 92 -116 -9 -5 -13 -16 -9 -26 5 -14 2 -13 -11 3
-17 20 -17 20 -11 -2 5 -19 -12 -11 -107 48 -62 39 -133 88 -158 108 -25 20
-61 48 -80 61 -50 34 -70 59 -70 87 0 54 55 70 92 28z m17 -172 c60 -48 81
-70 81 -84 0 -8 -4 -8 -15 1 -9 7 -19 10 -22 6 -4 -4 -2 -10 4 -14 7 -5 9 -13
4 -21 -5 -7 -13 -11 -19 -7 -5 3 -9 -2 -8 -12 0 -11 -6 -16 -17 -16 -13 2 -16
-3 -11 -18 5 -17 3 -18 -15 -9 -41 22 -53 54 -50 135 2 42 7 76 13 76 5 0 30
-17 55 -37z m1606 -570 c4 -16 5 -127 4 -248 -2 -121 0 -226 4 -232 13 -21
-28 -15 -47 6 -16 17 -17 42 -14 248 2 125 7 234 11 241 14 21 34 13 42 -15z
m-5571 -218 c3 -60 11 -209 18 -330 16 -286 17 -397 1 -402 -6 -2 -12 4 -12
14 1 30 -21 549 -29 684 -7 132 -6 167 8 153 5 -5 11 -58 14 -119z m-49 -231
c9 -159 18 -342 19 -407 3 -108 2 -119 -16 -128 -11 -6 -22 -8 -25 -5 -3 2 -7
53 -9 113 -2 59 -9 230 -14 380 -10 247 -9 319 7 363 12 37 22 -42 38 -316z
m5162 230 c17 -13 36 -24 41 -24 6 0 12 -4 14 -8 3 -8 14 -16 203 -147 124
-86 315 -229 311 -233 -10 -9 -617 416 -624 437 -5 16 6 11 55 -25z m-1135
-246 c30 3 40 -1 53 -22 10 -14 26 -26 36 -26 11 0 19 -6 19 -12 0 -9 3 -10 8
-2 4 6 21 11 39 12 25 0 32 -4 37 -24 4 -13 14 -24 22 -24 11 0 15 -6 11 -20
-3 -10 1 -24 9 -31 11 -9 14 -8 15 7 0 18 1 18 9 -1 8 -18 9 -17 9 8 2 50 21
28 22 -25 1 -29 1 -56 0 -61 -1 -4 14 -16 31 -27 74 -45 7 -16 -237 100 -55
27 -110 58 -122 69 -12 12 -27 21 -33 21 -6 0 -10 24 -10 58 0 41 3 53 10 42
8 -12 11 -11 17 10 7 22 8 21 13 -15 5 -39 6 -40 42 -37z m-4328 -128 c3 -58
10 -161 16 -230 20 -262 20 -262 -1 -257 -10 3 -19 2 -19 -2 0 -4 -10 -8 -22
-8 -17 -2 -19 0 -8 7 11 7 12 13 2 35 -7 15 -18 25 -25 22 -12 -4 -37 15 -37
28 0 4 7 4 15 1 11 -4 19 3 25 20 14 35 12 65 -2 63 -40 -5 -41 -1 -35 84 5
59 4 78 -4 67 -9 -12 -9 -11 -3 5 4 11 8 36 10 55 3 32 3 33 -6 10 -9 -22 -9
-21 -5 9 3 18 6 43 6 55 1 15 3 13 9 -9 l7 -30 7 30 c4 17 16 49 27 72 10 24
19 49 19 56 0 13 11 30 16 25 1 -2 4 -50 8 -108z m562 -506 c-3 -7 1 -18 9
-24 10 -9 14 -7 18 7 3 13 8 8 21 -20 19 -44 11 -72 -11 -36 -10 16 -12 18 -8
5 3 -11 8 -46 12 -79 5 -50 4 -59 -8 -51 -8 4 -23 10 -34 11 -43 7 -73 25 -78
49 -3 19 0 24 17 24 12 0 27 -5 34 -12 15 -15 52 -18 52 -4 0 15 -13 31 -25
31 -15 1 -75 39 -75 48 0 5 9 5 21 2 18 -6 19 -5 10 13 -6 12 -16 24 -21 27
-22 14 -8 24 30 22 27 -1 39 -5 36 -13z m4818 -251 c10 -66 7 -223 -5 -223
-18 0 -109 44 -109 52 0 5 7 8 15 8 12 0 13 4 5 19 -5 11 -10 38 -10 60 0 36
3 40 27 43 26 3 66 53 56 71 -2 4 0 7 5 7 5 0 12 -17 16 -37z m-466 -156 c23
-7 39 -16 35 -21 -4 -4 0 -4 9 -1 10 4 40 -1 68 -10 49 -16 50 -17 51 -58 l1
-42 12 37 11 37 134 -44 c73 -24 135 -46 138 -48 3 -3 7 -302 10 -664 3 -362
6 -659 7 -660 1 -2 34 -7 72 -12 60 -9 52 -9 -61 -5 -71 2 -252 5 -401 6
l-272 3 -6 59 c-3 32 -6 83 -6 112 l0 54 -32 1 c-106 3 -209 10 -262 19 -34 5
-80 10 -104 10 -36 0 -44 4 -52 25 -12 32 -25 503 -16 579 l8 58 41 -7 c142
-23 293 -45 313 -45 16 0 24 7 26 23 3 16 7 10 18 -25 8 -26 18 -44 23 -41 5
3 13 0 18 -8 20 -33 29 52 29 287 l0 244 25 -4 c24 -5 25 -3 26 52 0 41 3 51
9 37 5 -11 9 -14 9 -6 1 18 31 40 55 41 15 0 16 3 6 15 -16 19 -2 20 58 2z
m1231 -409 c-7 -14 -8 -23 -1 -27 6 -3 13 -38 16 -76 3 -39 9 -119 14 -180 5
-60 9 -185 8 -278 l-1 -167 -29 -25 c-19 -17 -24 -25 -14 -25 16 0 28 -20 28
-45 0 -9 -7 -11 -22 -7 -14 3 -19 2 -14 -6 4 -7 1 -12 -8 -12 -8 0 -17 -8 -19
-17 -4 -14 -5 -13 -6 4 0 12 5 24 12 27 9 3 8 8 -3 18 -13 11 -15 64 -13 378
2 201 3 366 4 368 4 7 7 26 8 61 1 35 3 38 26 33 21 -4 23 -7 14 -24z m-2656
-119 c13 -9 -3 -59 -19 -59 -8 0 -14 -4 -14 -10 0 -5 7 -10 15 -10 12 0 15
-15 15 -74 0 -41 5 -87 11 -103 9 -25 12 -318 4 -466 -3 -59 -44 -122 -89
-136 -40 -13 -205 -31 -223 -24 -7 3 -16 -2 -19 -11 -3 -9 -15 -16 -27 -16
-11 0 -18 3 -14 6 7 7 -24 38 -46 47 -18 7 -23 42 -8 51 11 7 24 146 23 246
-1 83 4 110 20 110 28 0 48 34 48 82 0 45 2 48 25 48 14 0 25 4 25 8 0 5 6 17
14 27 12 16 16 17 30 6 11 -9 16 -10 16 -2 0 6 17 11 40 11 29 0 40 4 40 15 0
8 -7 15 -15 15 -11 0 -15 11 -15 40 0 22 5 40 10 40 6 0 10 31 10 73 0 106 5
117 50 117 31 0 39 4 44 23 6 21 7 20 23 -13 10 -19 21 -38 26 -41z m337 -240
c0 -27 53 -79 80 -79 12 0 18 4 15 10 -7 12 40 24 56 15 6 -4 15 -1 20 6 5 8
8 -79 8 -211 -1 -124 -3 -217 -6 -207 -4 15 -11 17 -44 12 -33 -6 -39 -4 -39
10 0 15 -6 17 -36 12 -47 -8 -52 -14 -28 -32 18 -14 18 -14 -3 -15 -17 0 -23
6 -24 23 l-2 22 -4 -22 c-5 -29 -23 -30 -23 -2 0 11 -4 18 -9 15 -16 -10 -21
24 -21 152 0 184 10 292 26 292 8 0 14 7 14 16 0 8 5 12 10 9 6 -3 10 -15 10
-26z m1950 -203 l0 -174 -27 -6 c-16 -3 -92 -8 -170 -11 l-143 -6 0 170 0 171
33 1 c17 1 84 7 147 14 63 6 125 13 138 14 l22 1 0 -174z m-2937 -110 c2 -6 7
30 11 79 10 126 13 140 15 63 0 -43 5 -68 12 -68 8 0 10 -17 7 -49 -4 -37 -2
-48 8 -44 15 5 36 -30 33 -55 -5 -30 12 -92 24 -92 7 0 6 -4 -3 -10 -9 -6 -11
-13 -5 -17 12 -10 15 -53 4 -53 -5 0 -4 -11 1 -25 6 -15 6 -40 1 -63 -5 -20
-9 -30 -10 -20 -2 25 -44 112 -74 152 -15 19 -27 45 -28 58 0 22 -1 22 -9 3
-4 -11 -8 68 -8 180 1 191 1 195 9 86 4 -62 10 -119 12 -125z m-1479 108 c3
-9 3 -21 0 -27 -3 -7 2 -3 11 8 14 17 17 18 25 5 5 -8 10 -34 10 -57 0 -30 4
-43 14 -43 23 0 35 -50 42 -185 10 -158 9 -204 -3 -216 -32 -32 -151 -15 -172
24 -8 15 -12 80 -13 197 -1 258 0 260 18 260 8 0 12 5 9 10 -12 19 4 40 29 40
13 0 27 -7 30 -16z m-253 -194 c5 0 9 18 9 40 0 36 3 40 25 40 23 0 25 -4 25
-40 0 -27 4 -40 14 -40 7 0 16 -10 20 -22 5 -18 8 -20 15 -10 6 10 10 7 15
-13 4 -14 4 -30 1 -35 -3 -5 1 -28 9 -52 27 -84 27 -124 -2 -162 -28 -35 -27
-35 -171 -55 l-54 -7 7 155 c3 86 11 160 16 165 7 7 10 5 10 -4 0 -9 5 -8 20
5 14 13 20 32 22 69 1 50 2 50 5 9 2 -24 8 -43 14 -43z m691 -28 c-25 -22 -82
-134 -108 -212 -10 -30 -22 -61 -27 -67 -13 -18 -27 -16 -27 3 0 14 -3 14 -16
3 -25 -20 -34 5 -34 95 0 71 2 78 14 60 14 -18 15 -18 36 9 12 15 28 27 35 27
11 0 13 8 8 31 l-6 31 47 -3 c25 -2 46 -1 46 3 0 11 30 38 42 38 6 0 2 -8 -10
-18z m3978 -105 l0 -112 -168 -3 -168 -3 -2 105 c-3 103 -2 106 20 111 21 5
88 8 251 13 l67 2 0 -113z m-3490 -142 c-10 -12 -10 -15 3 -15 8 0 20 6 26 14
12 15 51 10 51 -6 0 -5 -9 -7 -20 -3 -15 5 -18 3 -14 -9 11 -30 74 -10 74 23
0 6 5 11 10 11 6 0 10 -5 10 -11 0 -6 9 -9 19 -6 16 4 19 0 18 -21 -1 -18 3
-26 18 -28 11 -2 36 -7 55 -12 30 -7 35 -12 33 -36 -1 -20 2 -26 12 -22 9 3
16 -5 20 -23 3 -16 21 -42 39 -58 49 -43 41 -75 -30 -110 -30 -14 -54 -31 -54
-36 0 -5 -12 -20 -26 -34 -21 -19 -24 -29 -19 -56 4 -17 14 -43 23 -56 10 -13
22 -31 27 -39 6 -9 16 -22 23 -30 6 -7 12 -19 12 -26 0 -7 9 -21 20 -31 24
-22 26 -8 5 42 -19 44 -19 43 2 43 12 0 8 7 -14 23 -18 12 -33 30 -33 40 0 15
10 17 69 17 39 0 73 5 76 10 3 6 17 10 31 10 22 0 24 3 19 23 -8 24 -8 22 -6
57 1 14 5 20 10 15 8 -10 46 -166 57 -240 8 -53 -11 -248 -30 -305 -15 -45
-15 -45 -9 43 6 89 6 89 -16 76 -17 -11 -25 -11 -41 -1 -15 9 -25 10 -38 2
-16 -11 -16 -11 1 -6 9 3 17 1 17 -4 0 -17 -29 -11 -49 11 -11 12 -24 18 -30
15 -7 -5 -8 -1 -5 9 7 18 40 15 36 -3 -1 -7 5 -12 13 -12 17 0 19 13 6 38 -5
9 -13 26 -17 37 l-7 20 -4 -20 c-5 -20 -30 -45 -45 -45 -5 0 -1 11 8 25 9 14
14 25 12 25 -2 0 -19 -11 -38 -25 -19 -14 -44 -25 -57 -25 -13 0 -23 -4 -23
-10 0 -5 11 -10 24 -10 14 0 28 5 31 10 8 13 25 13 25 -1 0 -6 -9 -13 -20 -16
-16 -4 -18 -8 -9 -19 14 -17 41 -18 57 -2 9 9 12 8 12 -5 0 -9 7 -17 15 -17 8
0 15 -6 15 -12 0 -8 -15 -13 -41 -14 -28 0 -44 -6 -50 -17 -6 -9 -17 -17 -25
-17 -8 0 -13 -4 -9 -9 3 -5 -3 -12 -12 -14 -56 -15 -80 -20 -98 -19 -28 2
-109 -41 -113 -61 -3 -13 4 -15 35 -12 21 1 43 3 50 4 7 1 10 8 7 16 -4 10 0
15 11 15 11 0 15 -5 12 -15 -4 -8 -2 -17 4 -20 5 -4 9 -3 8 2 -7 42 23 65 106
80 67 12 85 7 85 -22 0 -28 -34 -55 -69 -55 -13 0 -22 -3 -18 -6 11 -12 78 7
98 27 27 27 34 18 18 -21 -9 -21 -28 -38 -54 -49 -65 -29 -74 -31 -101 -20
-15 5 -29 7 -32 4 -7 -6 46 -55 59 -55 6 0 8 -4 4 -9 -3 -5 -1 -12 4 -15 5 -3
11 1 15 9 8 22 21 18 34 -10 16 -34 17 -32 -18 -38 -29 -6 -42 -26 -17 -28 16
-1 -49 -20 -93 -26 -38 -5 -130 28 -130 47 0 5 -5 10 -11 10 -6 0 -29 20 -52
44 -46 48 -116 95 -133 89 -6 -2 -42 27 -80 65 -49 48 -77 87 -98 133 -16 35
-35 76 -42 90 -27 52 -43 382 -22 438 12 34 70 121 79 121 4 0 10 9 14 19 3
10 16 22 29 25 13 3 32 9 42 13 13 5 15 3 10 -8 -5 -8 -2 -8 6 2 7 9 29 24 48
34 19 9 42 23 50 30 20 17 103 64 114 65 5 0 3 -7 -4 -15z m3400 -47 c0 28 15
29 17 1 3 -31 21 -48 33 -29 8 13 12 13 32 1 22 -14 22 -14 5 13 -14 21 -15
26 -4 26 8 0 26 -18 41 -40 14 -22 23 -40 19 -40 -4 0 6 -13 21 -29 18 -19 24
-31 16 -36 -6 -4 -9 -19 -7 -33 2 -15 2 -21 0 -14 -3 6 -13 12 -23 12 -9 0
-23 7 -30 15 -13 16 -65 18 -110 6 -37 -10 -80 -2 -73 15 6 16 -5 18 -26 5 -8
-5 -11 -16 -8 -24 3 -9 -1 -18 -9 -21 -19 -7 -74 4 -74 16 0 5 -4 6 -10 3 -5
-3 -10 -1 -10 4 0 6 6 11 14 11 16 0 28 24 20 43 -3 8 2 20 11 27 8 7 15 21
15 31 0 31 30 21 45 -15 12 -28 18 -33 40 -29 14 3 25 9 25 13 0 5 3 16 7 26
5 14 3 16 -11 11 -28 -11 -37 2 -20 28 l16 25 19 -23 18 -22 1 23z m-621 -105
c0 -59 -3 -81 -9 -68 -8 18 -9 18 -9 -5 -1 -23 -5 -25 -44 -25 -23 0 -61 7
-84 14 -34 11 -43 19 -43 37 0 12 -7 24 -15 28 -8 3 -15 14 -15 25 0 11 -8 22
-17 24 -12 3 -10 5 7 6 20 1 22 3 10 11 -13 8 -12 10 3 10 10 0 16 4 13 9 -10
15 14 19 112 20 l92 1 -1 -87z m306 -26 l0 -108 -38 -22 c-32 -18 -39 -19 -47
-7 -5 8 -7 17 -5 20 1 3 -12 6 -31 7 -19 1 -34 -3 -34 -8 0 -5 14 -9 30 -9 17
0 30 -4 30 -10 0 -5 -13 -10 -28 -10 -15 0 -33 -5 -40 -12 -9 -9 -12 -9 -12 0
0 8 -8 10 -24 6 -17 -4 -28 1 -44 20 -11 14 -25 26 -31 26 -9 0 -15 70 -14
165 1 58 -9 54 146 52 l142 -2 0 -108z m-4631 -113 c-5 -27 -4 -35 5 -30 6 4
12 15 13 24 0 9 4 -3 8 -28 l7 -45 2 45 c3 38 4 41 11 20 6 -18 8 -20 9 -7 1
11 6 16 14 14 6 -3 42 -16 79 -28 58 -20 67 -26 72 -52 15 -72 13 -73 -71 -81
-132 -11 -150 -9 -157 17 -12 46 -4 187 11 187 2 0 1 -16 -3 -36z m570 1 c-8
-32 3 -32 28 0 17 22 21 23 34 11 8 -8 14 -30 15 -48 1 -18 4 -43 7 -55 6 -19
9 -20 26 -7 11 8 15 14 10 14 -11 0 -3 94 8 105 3 3 3 -15 0 -41 -2 -25 -1
-49 4 -53 5 -3 17 -18 26 -33 l17 -26 -52 -6 c-29 -4 -73 -9 -98 -12 l-45 -6
-1 64 c-1 34 3 75 9 91 13 34 20 35 12 2z m-1191 -94 c-3 -14 -13 -18 -36 -16
-40 3 -51 -3 -37 -20 8 -9 8 -15 1 -20 -6 -3 -16 5 -22 19 -9 20 -18 24 -45
23 -19 -1 -34 -7 -34 -14 0 -19 20 -26 36 -12 21 17 27 6 15 -32 -5 -19 -10
-29 -10 -22 -1 6 -14 14 -31 18 -16 4 -30 10 -30 15 0 4 -13 13 -29 19 -37 16
-67 84 -45 102 10 8 14 8 14 0 0 -7 9 -9 25 -5 16 4 34 0 50 -10 31 -21 45
-20 45 2 1 15 2 15 13 2 7 -9 28 -15 50 -15 42 0 41 -1 26 26 -6 12 -7 28 -4
37 6 13 13 6 30 -31 13 -27 21 -57 18 -66z m3284 20 c42 3 90 -21 78 -40 -3
-6 -4 -11 -1 -11 2 0 11 -3 20 -6 11 -4 16 4 19 38 3 42 4 42 5 -9 l2 -53 -97
0 c-118 0 -204 10 -197 21 3 5 15 10 27 10 17 1 18 2 4 6 -33 9 -7 21 36 17
39 -4 40 -3 17 8 l-25 12 28 4 c15 2 27 9 27 15 0 8 3 8 9 -1 5 -9 23 -13 48
-11z m-1647 -73 c56 -28 84 -78 104 -179 8 -41 22 -94 30 -118 9 -24 15 -45
14 -47 -2 -1 -23 -5 -47 -8 -39 -4 -47 -1 -85 34 -23 21 -47 49 -53 62 -76
158 -90 223 -56 260 21 24 39 23 93 -4z m1470 -393 c0 -157 -2 -285 -4 -285
-3 0 -20 8 -38 18 -18 10 -45 22 -59 25 -27 7 -27 8 -35 134 -12 171 -9 326 5
331 6 2 11 8 11 14 0 5 -9 6 -20 3 -16 -5 -20 -2 -20 19 0 26 1 26 79 26 l79
0 2 -285z m216 -35 c-4 -173 -9 -316 -11 -318 -8 -8 -72 11 -94 27 -23 18 -25
27 -37 212 -7 107 -16 240 -20 297 l-7 102 88 -2 88 -3 -7 -315z m-2317 18
c-1 -113 -5 -176 -9 -153 -4 22 -8 34 -9 28 -3 -28 -20 -11 -19 20 0 17 -7 75
-16 127 -8 52 -15 112 -16 133 0 36 1 37 35 37 l35 0 -1 -192z m880 -159 c27
-28 47 -57 45 -64 -3 -7 8 -29 25 -48 35 -40 38 -49 14 -40 -24 8 -21 5 70
-70 56 -47 95 -70 138 -84 42 -13 59 -23 59 -35 0 -10 5 -18 10 -18 6 0 10
-12 10 -26 0 -22 3 -25 23 -20 12 3 27 6 33 6 14 0 124 106 118 113 -3 2 9 10
26 17 16 7 30 17 30 22 0 5 5 6 10 3 6 -3 10 -18 10 -33 0 -41 14 -56 43 -48
37 9 66 99 49 151 -7 25 -7 45 0 66 11 33 18 35 57 14 16 -8 32 -11 35 -7 4 3
4 -1 0 -11 -4 -12 -2 -16 8 -12 28 11 88 -163 75 -216 -9 -36 -99 -137 -159
-179 -125 -89 -350 -94 -512 -13 -116 58 -222 158 -232 221 -3 20 -2 23 5 12
15 -23 25 13 11 40 -6 11 -14 62 -17 113 -4 61 -10 95 -19 100 -7 4 -11 14 -8
21 3 8 1 17 -5 21 -11 6 -16 55 -6 55 2 0 27 -23 54 -51z m2399 28 c2 -10 -5
-28 -15 -39 -10 -11 -17 -22 -15 -24 12 -20 -3 -46 -38 -64 -21 -11 -42 -20
-45 -20 -3 0 -5 38 -5 85 l0 86 57 -3 c47 -2 58 -7 61 -21z m1208 -394 c-9
-235 -19 -359 -28 -369 -4 -3 -38 17 -76 46 -69 52 -70 54 -76 109 -3 31 -6
127 -5 214 l1 157 42 0 c23 0 60 9 82 20 71 35 68 43 60 -177z m-5677 -248
c32 -283 61 -612 61 -688 0 -5 -7 -2 -15 6 -11 12 -13 32 -8 95 3 45 2 82 -4
85 -5 3 -7 -10 -5 -31 3 -20 1 -34 -3 -29 -5 4 -9 15 -10 25 -1 9 -7 29 -13
44 -15 36 -61 870 -48 857 3 -2 23 -166 45 -364z m47 356 c16 -5 59 -13 97
-16 l67 -7 -1 -321 c-1 -177 -4 -312 -6 -299 -2 12 -9 22 -14 22 -5 0 -10 19
-11 43 -1 37 -2 35 -8 -18 l-7 -60 -3 85 -3 85 -7 -60 c-5 -44 -7 -51 -9 -25
-1 19 -5 29 -8 23 -2 -7 -13 -13 -24 -13 -17 0 -19 -8 -20 -92 l-1 -93 -13 80
c-11 68 -37 272 -75 585 -11 95 -9 98 46 81z m5408 -47 c9 -23 29 -295 22
-301 -3 -3 -14 0 -23 8 -12 9 -11 5 3 -11 16 -19 23 -43 27 -92 2 -38 2 -68
-1 -68 -3 0 -21 12 -41 26 -34 24 -33 23 6 -13 l41 -38 6 -130 c4 -71 9 -164
11 -205 3 -41 10 -160 15 -265 6 -104 13 -205 16 -222 5 -31 3 -33 -23 -34
l-28 -1 25 -7 c25 -7 25 -8 27 -124 l1 -117 -26 6 c-35 9 -43 14 -37 23 2 5
15 6 27 4 22 -4 23 -1 23 56 0 34 -1 61 -3 61 -2 0 -10 -7 -19 -15 -20 -21
-50 -1 -32 21 17 20 2 17 -19 -4 -16 -16 -19 -58 -3 -48 4 3 7 -4 7 -15 0 -10
-3 -19 -7 -19 -13 0 -29 54 -30 103 -2 51 -4 45 -15 -41 -4 -35 -9 -42 -24
-40 -10 2 -28 -8 -39 -21 -18 -21 -21 -22 -27 -6 -7 18 4 414 12 427 3 4 15 2
29 -4 25 -11 79 -3 71 11 -3 5 -23 12 -43 16 -49 9 -63 21 -63 56 0 40 12 42
51 9 19 -16 38 -29 43 -30 5 0 -13 17 -39 38 l-47 37 6 160 c26 683 43 844 84
803 8 -8 9 -5 5 11 -4 16 -2 20 10 15 9 -3 18 -12 21 -20z m-5159 4 c10 -29
116 -1131 109 -1138 -3 -2 -24 2 -47 10 -29 11 -42 21 -44 35 -5 73 -35 619
-40 753 -3 89 -10 165 -15 168 -4 3 -8 45 -8 95 0 83 1 89 20 89 11 0 23 -6
25 -12z m170 -14 l45 -6 0 -537 c0 -295 -3 -552 -6 -572 -5 -31 -9 -35 -29
-31 -14 2 -23 11 -23 21 0 9 -4 45 -10 81 -6 36 -18 137 -26 225 -30 310 -66
661 -76 735 -14 110 -16 103 35 96 25 -3 65 -9 90 -12z m115 -41 c0 -16 7
-179 15 -363 8 -184 17 -436 21 -559 l7 -223 -34 7 c-19 4 -37 9 -41 12 -5 2
-8 263 -8 579 0 567 0 574 20 574 15 0 20 -7 20 -27z m4760 -105 c0 -51 -7
-187 -14 -303 -8 -115 -18 -268 -21 -340 -3 -71 -9 -132 -11 -135 -3 -3 -19
10 -35 28 -23 26 -29 42 -29 80 -1 53 -6 126 -20 292 -6 63 -12 170 -15 238
-5 121 -4 123 20 146 14 13 25 28 25 34 0 7 11 14 25 18 14 3 22 11 19 16 -4
6 2 8 15 3 12 -4 21 -2 21 4 0 6 5 11 10 11 6 0 10 -37 10 -92z m-202 -57 c22
-12 27 -41 37 -196 3 -49 8 -117 10 -150 15 -218 26 -449 22 -465 -3 -11 -1
-23 4 -26 5 -3 9 -41 9 -85 0 -51 -4 -78 -10 -74 -5 3 -10 2 -10 -3 0 -6 7
-13 16 -16 12 -5 15 -22 15 -83 0 -43 2 -108 5 -145 l6 -67 -42 13 c-23 7 -45
18 -49 24 -4 7 -15 10 -23 7 -9 -4 -18 0 -21 8 -6 17 29 31 39 16 10 -17 44
-10 44 9 0 10 5 23 12 30 6 6 8 15 4 19 -4 4 -12 0 -17 -10 -13 -23 -29 -22
-29 3 0 12 7 20 18 20 16 1 16 1 -1 11 -11 7 -18 21 -17 37 3 47 0 72 -8 72
-5 0 -7 -24 -4 -54 4 -51 3 -54 -16 -49 -12 3 -30 -2 -42 -10 -21 -14 -21 -16
-3 -26 11 -7 13 -11 4 -11 -7 0 -11 -6 -7 -15 3 -8 0 -15 -7 -15 -7 0 -4 -5 6
-11 29 -17 19 -30 -20 -27 -36 3 -38 5 -36 38 0 19 -2 40 -6 45 -4 6 -7 17 -6
25 1 8 3 39 3 68 2 35 6 52 15 52 7 0 23 9 35 20 12 11 26 20 32 20 5 0 10 6
10 14 0 9 -7 12 -19 9 -20 -5 -23 10 -7 35 5 9 -2 17 -24 25 l-32 12 6 179 c3
98 8 181 10 184 3 3 14 -1 23 -9 10 -7 7 -1 -6 14 -23 25 -24 31 -18 129 4 57
9 166 12 243 8 181 18 201 83 166z m-114 -112 c-1 -28 -6 -155 -9 -282 -4
-127 -9 -235 -12 -240 -3 -5 -5 -42 -4 -83 1 -55 -2 -74 -12 -74 -27 0 -37 25
-37 89 1 53 3 62 11 47 9 -14 13 -16 20 -5 9 15 -8 42 -22 33 -11 -6 -16 22
-23 114 l-5 74 24 -26 c13 -14 30 -26 37 -26 7 0 -4 15 -25 33 l-38 32 -6 116
c-6 112 -5 116 15 121 13 4 27 -1 38 -13 9 -11 19 -17 22 -14 3 3 -12 21 -34
41 -31 28 -33 32 -9 16 57 -36 58 -36 41 -3 -9 17 -19 31 -22 31 -3 0 -2 -4 1
-10 3 -5 0 -7 -9 -4 -8 3 -12 12 -9 20 3 8 0 14 -7 14 -6 0 -8 5 -4 11 4 8 9
8 17 0 16 -16 40 -14 33 4 -3 9 0 15 9 15 9 0 12 6 8 17 -4 10 -2 14 4 10 6
-4 9 -29 7 -58z m-140 -101 c17 -194 27 -351 22 -355 -2 -3 -36 21 -75 54 -70
57 -71 58 -69 103 3 44 3 45 35 42 26 -3 32 0 27 12 -3 8 -17 22 -30 31 -24
16 -35 42 -11 29 10 -6 10 -4 0 7 -7 7 -13 20 -12 29 0 10 2 11 6 3 2 -7 12
-13 20 -13 9 0 13 6 10 14 -4 11 -1 13 10 9 13 -5 12 0 -6 25 -27 38 -19 41
24 7 l33 -24 -2 24 c0 15 -6 24 -15 22 -8 -1 -16 4 -19 12 -3 10 0 12 12 8 10
-4 16 -1 16 8 0 8 4 15 9 15 5 0 12 -28 15 -62z m701 16 l67 -47 -6 -106 c-4
-58 -9 -142 -12 -186 -15 -258 -24 -415 -24 -447 0 -38 -11 -47 -37 -30 -11 7
-25 135 -37 352 -7 114 -16 244 -21 308 -5 55 3 64 35 40 9 -7 4 -2 -11 12
-21 20 -27 37 -32 88 -4 36 -3 62 3 62 5 0 39 -21 75 -46z m168 -129 c64 -55
65 -57 69 -113 2 -31 1 -61 -3 -66 -4 -4 -35 13 -68 38 -84 65 -77 50 8 -18
l69 -55 7 -158 c3 -87 8 -178 11 -203 2 -25 7 -128 10 -230 7 -172 6 -184 -9
-171 -19 15 -23 56 -7 66 15 10 2 24 -20 22 -20 -1 -29 -17 -10 -17 6 0 10 -9
10 -21 0 -15 -5 -19 -15 -15 -11 4 -14 -1 -10 -22 7 -48 8 -57 7 -76 -1 -12
-7 -16 -17 -12 -10 4 -14 -1 -12 -16 1 -11 -4 -23 -10 -25 -15 -5 -30 26 -17
36 13 9 15 71 4 90 -7 12 -9 9 -10 -16 0 -55 -20 -37 -21 20 l-1 52 -12 -55
-11 -55 -6 65 c-4 47 -6 54 -7 25 -1 -22 -7 -47 -12 -55 -7 -12 -11 -8 -16 17
-4 18 -10 30 -15 27 -5 -3 -9 14 -9 37 0 47 27 669 35 794 2 44 4 99 5 123 0
23 4 42 9 42 5 0 39 -25 74 -55z m174 -140 c41 -35 42 -38 38 -88 -2 -29 -6
-106 -10 -172 -7 -148 -15 -206 -25 -200 -5 3 -11 1 -15 -5 -3 -6 0 -13 9 -16
11 -4 13 -18 10 -62 -10 -113 -15 -142 -28 -142 -16 0 -31 203 -16 208 6 2 10
8 10 13 0 6 -4 7 -10 4 -5 -3 -10 -1 -10 4 0 6 7 11 15 11 8 0 15 5 15 10 0 6
-7 10 -15 10 -8 0 -17 10 -19 23 -10 49 -21 292 -13 295 4 2 4 9 -2 15 -7 10
-17 111 -12 140 2 11 30 -6 78 -48z m-1090 -121 c8 4 27 -6 44 -24 26 -25 31
-39 36 -100 6 -67 5 -70 -16 -70 -12 0 -29 4 -39 9 -9 5 -32 15 -50 22 -47 17
-62 35 -62 74 0 26 3 33 15 29 8 -4 15 -12 15 -20 0 -17 31 -18 49 -1 11 10
13 10 7 0 -5 -9 0 -13 14 -13 16 0 20 -4 16 -16 -8 -21 1 -34 19 -27 25 9 17
42 -17 74 -18 16 -27 29 -20 29 7 0 10 5 6 11 -5 8 -9 8 -14 -1 -6 -9 -16 -6
-39 11 -37 27 -42 48 -5 24 14 -9 32 -14 41 -11z m459 -219 c-3 -33 -9 -136
-12 -230 -4 -93 -9 -165 -10 -160 -4 13 -34 423 -34 464 l0 32 31 -23 c30 -22
31 -25 25 -83z m-458 -151 c12 -4 22 -12 22 -19 0 -8 8 -11 20 -8 15 4 19 2
14 -10 -4 -12 2 -18 20 -23 21 -5 26 -12 27 -38 0 -17 3 -68 5 -113 3 -55 1
-83 -6 -83 -18 0 -30 49 -30 125 0 62 -2 73 -15 69 -8 -4 -15 -1 -15 5 0 6 8
12 18 12 16 1 16 2 0 6 -10 2 -18 10 -18 16 -1 7 -9 -4 -19 -23 -10 -19 -15
-39 -12 -45 12 -21 8 -105 -6 -117 -11 -9 -13 -8 -11 3 2 8 -5 14 -17 14 -24
0 -30 32 -20 122 5 53 10 63 25 63 14 0 18 -5 13 -17 -5 -15 -4 -16 8 -5 12
11 10 16 -13 34 -42 30 -38 44 10 32z m1267 -44 c31 -11 61 -17 66 -14 12 7
17 -25 24 -157 l6 -117 -53 -5 c-29 -4 -89 -9 -133 -12 -70 -5 -78 -4 -62 8
19 16 23 43 7 49 -7 2 -8 34 -4 91 6 80 9 88 30 93 12 3 31 1 42 -5 12 -6 29
-11 39 -11 13 1 10 5 -12 18 -16 9 -33 16 -37 17 -17 1 -19 17 -4 40 20 30 18
30 91 5z m-2214 -441 c36 -8 47 -14 38 -20 -11 -7 -10 -9 4 -9 10 0 15 -5 12
-11 -4 -6 2 -13 14 -16 12 -3 21 -9 21 -13 0 -5 3 -16 7 -26 4 -12 3 -15 -5
-10 -8 5 -12 -2 -12 -22 0 -16 -9 -41 -21 -56 -11 -15 -18 -33 -16 -41 6 -15
-26 -90 -43 -100 -5 -3 -10 -17 -10 -31 0 -15 -6 -24 -16 -24 -17 0 -44 -57
-44 -94 0 -14 -4 -27 -8 -30 -4 -2 -8 -17 -7 -32 0 -28 -17 -48 -93 -109 -17
-15 -30 -30 -28 -33 6 -11 -21 -32 -30 -24 -5 4 0 -3 10 -15 22 -27 15 -29
-19 -7 -14 9 -33 13 -45 9 -12 -4 -20 -2 -20 5 0 8 -29 10 -95 8 -52 -2 -95
-3 -95 -2 0 0 18 20 40 44 22 24 40 49 40 55 0 7 9 20 20 30 11 10 22 27 26
38 10 32 61 107 68 100 3 -3 6 12 6 35 0 23 4 50 9 60 5 9 12 25 15 35 3 11
15 21 26 24 14 4 20 14 20 33 0 15 6 33 14 39 8 7 17 30 21 52 5 26 12 39 23
40 11 0 12 2 5 6 -7 2 -13 11 -13 18 0 21 56 75 77 75 15 0 15 2 4 9 -11 7 -9
10 10 14 13 2 27 5 31 6 4 0 30 -4 59 -10z m-2415 -485 c-4 -12 -2 -15 9 -10
9 3 15 0 15 -10 0 -8 4 -13 9 -9 5 3 20 -15 32 -40 12 -25 26 -45 30 -45 4 0
10 -8 14 -19 3 -10 19 -34 35 -52 17 -19 36 -41 43 -49 42 -52 64 -81 81 -104
10 -14 25 -26 32 -26 8 0 14 -7 14 -15 0 -9 11 -19 23 -24 13 -5 40 -25 60
-44 20 -19 39 -32 42 -29 3 3 5 0 5 -6 0 -7 7 -12 15 -12 8 0 15 -4 15 -10 0
-5 9 -10 21 -10 11 0 17 -4 14 -10 -3 -5 0 -10 7 -10 8 0 14 -9 15 -20 2 -22
-12 -27 -21 -7 -3 6 -3 1 0 -13 4 -14 11 -28 16 -31 5 -3 6 -14 2 -24 -6 -15
-4 -17 14 -13 27 8 28 -9 2 -42 -17 -22 -19 -23 -25 -7 -4 9 -11 17 -17 17 -5
0 -17 7 -25 16 -13 13 -17 13 -24 2 -13 -21 -11 -96 4 -101 9 -3 6 -16 -11
-47 -12 -24 -20 -46 -17 -48 3 -3 5 0 5 6 0 7 5 12 11 12 14 0 2 -72 -14 -82
-16 -10 -27 0 -20 19 4 11 3 14 -6 9 -14 -9 -64 32 -56 45 3 4 -4 14 -16 23
-12 8 -18 19 -14 26 5 9 1 10 -14 5 -16 -5 -20 -3 -15 8 3 8 -2 17 -11 21 -10
3 -14 2 -9 -5 3 -6 -3 -5 -15 3 -12 7 -17 14 -11 16 5 2 10 8 10 14 0 6 -7 8
-14 5 -10 -4 -13 -1 -9 9 3 7 0 14 -7 14 -7 0 -10 7 -7 14 4 11 1 13 -11 9 -9
-3 -14 -3 -10 2 4 4 -19 29 -52 55 -32 26 -71 62 -87 81 -15 18 -45 50 -65 71
-21 21 -38 45 -38 53 0 8 -5 14 -12 13 -7 -2 -12 3 -13 10 0 8 -8 19 -17 26
-10 7 -16 15 -13 18 3 2 -6 15 -20 28 -23 22 -25 22 -26 4 0 -13 -4 -9 -11 11
-5 17 -9 40 -9 53 0 13 -10 33 -24 45 l-25 22 19 40 c24 52 83 110 140 140 55
29 65 30 57 9z m-1180 -51 c9 -10 31 -25 48 -33 41 -20 39 -39 -4 -55 -19 -7
-54 -20 -77 -28 -24 -9 -43 -13 -43 -9 0 4 -4 2 -8 -3 -9 -13 -131 -65 -152
-65 -12 0 -15 14 -15 67 l0 66 100 38 c116 43 128 45 151 22z m3129 -299 c11
-3 32 -24 47 -46 l26 -42 -36 -28 c-21 -15 -43 -33 -50 -38 -23 -20 -82 -41
-83 -30 -1 5 -3 15 -4 20 -1 6 -3 17 -4 25 -1 19 -31 19 -57 0 -36 -27 -48
-17 -20 18 14 17 31 42 36 54 5 14 15 20 23 17 14 -5 33 24 22 34 -3 3 -5 0
-5 -6 0 -7 -6 -12 -12 -12 -7 1 -2 10 11 20 23 20 66 25 106 14z m-650 -104
c-3 -5 -32 -10 -64 -10 -32 0 -80 -8 -107 -17 -52 -17 -114 -53 -114 -66 0
-10 181 -1 189 10 3 5 16 8 29 7 12 -1 22 3 22 7 0 5 -7 9 -15 9 -8 0 -15 5
-15 10 0 6 16 10 35 10 31 0 35 -3 31 -22 -3 -13 -10 -48 -16 -78 -6 -30 -13
-66 -16 -79 -4 -20 -9 -22 -37 -17 -96 20 -141 14 -131 -17 6 -18 3 -19 -24
-14 -38 8 -50 -7 -27 -32 13 -16 20 -17 40 -7 14 6 25 14 25 19 0 9 54 10 63
1 3 -4 -3 -18 -14 -32 -15 -20 -17 -27 -7 -34 18 -11 78 -10 78 2 0 6 11 10
24 10 32 0 44 20 22 36 -15 11 -14 13 14 19 25 5 31 11 27 25 -7 27 20 162 36
177 11 11 17 10 33 -8 10 -13 13 -19 7 -15 -19 11 -17 -49 3 -68 8 -9 24 -16
34 -16 11 0 30 -11 42 -25 l23 -25 28 24 28 25 -20 20 c-12 12 -27 21 -34 21
-7 0 -18 9 -25 21 -7 11 -19 18 -27 15 -18 -7 -32 14 -15 24 7 4 -7 12 -37 20
-36 10 -42 15 -25 18 13 2 53 -11 90 -29 37 -18 72 -35 77 -37 6 -3 -5 12 -24
32 -29 30 -72 53 -139 72 -7 2 -11 8 -7 14 8 13 94 -21 137 -54 19 -15 45 -49
58 -74 14 -26 29 -50 34 -53 5 -4 6 -19 2 -33 -8 -31 1 -35 13 -4 4 12 10 17
14 12 3 -6 -5 -34 -19 -64 -13 -29 -23 -58 -20 -64 2 -6 8 0 14 14 l11 25 0
-27 c1 -15 -6 -33 -14 -41 -8 -8 -11 -17 -8 -21 3 -3 0 -12 -6 -20 -16 -19
-44 -9 -38 14 3 13 0 16 -13 13 -13 -4 -18 -16 -19 -56 -2 -88 -19 -169 -41
-192 -26 -28 -26 -41 0 -15 11 11 26 20 33 20 13 1 38 52 82 170 28 75 60 152
74 180 11 21 36 24 87 9 35 -11 44 -18 44 -36 0 -12 -9 -27 -21 -33 -11 -7
-25 -25 -31 -41 -5 -16 -14 -29 -19 -29 -5 0 -9 -6 -9 -14 0 -7 -16 -30 -35
-50 -19 -21 -35 -42 -35 -47 0 -6 -4 -8 -9 -4 -5 3 -12 1 -16 -5 -3 -5 -3 -10
2 -10 4 0 8 -14 9 -30 1 -17 -2 -30 -6 -30 -4 0 -10 -9 -13 -20 -3 -13 0 -20
9 -20 8 0 14 -4 14 -10 0 -5 -4 -10 -9 -10 -5 0 -12 -9 -16 -20 -3 -10 -22
-29 -41 -41 -27 -16 -34 -27 -30 -42 7 -26 -10 -47 -38 -48 -11 0 -15 -3 -8
-6 17 -7 15 -21 -9 -55 -12 -16 -27 -27 -35 -24 -8 3 -11 0 -7 -10 6 -15 45
-10 51 7 8 20 43 31 58 18 18 -15 1 -39 -28 -39 -16 0 -17 -3 -7 -21 9 -17 7
-24 -10 -40 -12 -11 -21 -24 -21 -29 0 -16 -40 -11 -46 5 -5 12 -12 11 -45 -5
-48 -25 -153 -27 -207 -5 -61 26 -112 86 -112 132 0 15 2 16 10 3 8 -11 9 -8
4 12 -5 23 -2 27 25 33 42 9 39 25 -4 25 -29 0 -33 3 -28 18 4 9 11 20 17 24
7 5 7 8 -2 8 -7 0 -17 -11 -22 -25 -7 -18 -17 -25 -37 -26 -16 -1 -39 -3 -52
-4 -68 -7 -192 47 -244 105 -20 23 -37 46 -37 50 0 5 -14 13 -32 19 -17 6 -29
8 -25 5 4 -4 1 -14 -6 -22 -10 -12 -9 -16 2 -20 7 -2 37 -24 66 -47 61 -50
113 -78 173 -94 23 -7 42 -15 42 -20 0 -11 -57 -51 -73 -51 -28 0 -157 58
-157 71 0 4 -18 27 -40 51 -22 24 -49 61 -60 84 -25 50 -27 130 -3 156 11 13
17 38 18 82 1 69 19 104 94 191 37 42 90 61 124 43 12 -6 22 -5 33 6 13 14 13
18 -1 39 -15 23 -14 25 7 31 13 3 37 6 55 6 21 0 44 10 65 28 52 44 95 72 101
65 4 -3 12 -1 19 5 32 26 218 47 203 22z m2719 -234 c-6 -60 -14 -119 -33
-246 -5 -36 -17 -123 -26 -195 -24 -195 -26 -206 -36 -199 -5 3 -9 13 -9 24 0
10 -7 21 -16 24 -13 5 -14 1 -9 -24 5 -23 3 -30 -9 -31 -9 -1 -22 -2 -28 -3
-22 -4 -29 5 -17 20 9 11 15 12 25 3 11 -9 11 -5 -1 17 -18 36 -19 48 -1 41
16 -6 13 37 -4 58 -16 20 -5 45 20 45 24 0 24 1 5 48 -14 32 -14 38 -1 48 9 6
13 19 9 32 -3 14 -1 22 8 22 10 0 10 3 1 12 -7 7 -12 27 -12 45 0 25 4 33 18
33 13 0 14 2 3 9 -9 6 -10 11 -2 15 6 4 8 18 5 31 -3 13 -2 30 2 37 4 7 9 32
10 55 1 24 7 49 13 57 6 8 11 18 9 22 -1 5 2 28 6 51 l8 42 34 -17 35 -16 -7
-60z m-180 2 c-3 -13 -13 -30 -20 -39 -8 -8 -14 -23 -14 -33 0 -9 -4 -14 -10
-11 -6 4 -10 -5 -10 -20 0 -14 -4 -24 -9 -20 -6 3 -9 -5 -9 -17 1 -13 1 -38 0
-56 -2 -28 -5 -33 -24 -30 -11 2 -23 -3 -25 -9 -3 -7 -1 -13 4 -13 5 0 8 -13
5 -29 -3 -20 -8 -28 -18 -24 -8 3 -14 -1 -14 -11 0 -9 -4 -16 -10 -16 -5 0
-10 -11 -10 -24 0 -21 -5 -24 -27 -23 -22 2 -29 -3 -31 -21 -2 -13 4 -34 12
-47 18 -27 7 -40 -24 -30 -20 6 -28 -9 -10 -20 6 -3 10 -14 10 -23 0 -12 -6
-8 -19 12 -18 28 -18 29 0 47 22 22 17 39 -11 39 -14 0 -20 7 -19 23 0 12 -1
31 -3 42 -2 12 2 19 10 17 10 -2 10 2 2 17 -14 27 -13 128 2 133 8 3 7 11 -4
27 -17 25 -14 47 12 71 64 63 83 74 152 90 105 26 121 25 112 -2z m-1954 -109
c16 -18 30 -37 30 -43 0 -6 -21 -40 -46 -76 -25 -36 -49 -75 -54 -87 -5 -13
-14 -23 -20 -23 -5 0 -10 -4 -10 -10 0 -5 -10 -21 -22 -35 -16 -19 -24 -22
-31 -13 -7 10 -10 10 -14 1 -2 -7 -11 -13 -19 -13 -7 0 -11 -6 -8 -14 3 -8 -2
-26 -11 -40 -10 -15 -15 -35 -12 -49 8 -28 -6 -52 -24 -42 -8 5 -11 4 -6 0 13
-15 -44 -65 -75 -65 -15 0 -28 3 -28 6 0 12 55 100 86 140 18 22 53 84 79 137
25 53 50 99 55 102 4 3 11 23 15 46 6 35 10 40 29 35 19 -5 20 -4 4 8 -24 17
-23 24 5 28 12 2 23 9 23 16 2 20 4 22 14 22 5 0 23 -14 40 -31z m104 -148 c3
-5 -2 -19 -12 -32 -10 -13 -29 -46 -42 -74 -14 -27 -31 -56 -37 -63 -7 -7 -13
-19 -13 -25 0 -7 -16 -30 -35 -51 -19 -22 -37 -48 -41 -58 -3 -10 -10 -18 -15
-18 -6 0 -25 -11 -43 -25 -41 -31 -96 -44 -96 -23 0 21 72 86 89 80 8 -3 11 0
7 6 -3 6 -3 12 1 14 5 1 28 43 53 92 47 93 111 173 129 161 6 -3 14 1 17 9 7
17 29 21 38 7z m743 -420 c10 10 14 9 19 -4 3 -9 -1 -24 -11 -33 -9 -10 -12
-20 -7 -23 5 -3 13 -21 17 -38 3 -18 16 -41 28 -50 12 -10 28 -31 35 -46 11
-26 15 -28 56 -22 45 7 53 0 61 -56 2 -18 43 -78 64 -95 10 -8 11 -13 3 -18
-6 -4 -9 -13 -7 -21 16 -49 16 -50 24 -36 6 10 14 7 32 -11 20 -19 24 -33 22
-73 -1 -30 1 -43 6 -32 6 18 8 18 21 2 11 -13 11 -18 1 -25 -8 -5 -3 -7 15 -7
16 0 23 2 17 4 -7 3 -13 13 -13 24 0 10 -9 28 -20 39 -25 25 -25 32 0 55 22
20 35 13 42 -20 2 -11 10 -19 16 -17 7 1 12 -2 12 -8 0 -5 6 -10 14 -10 9 0
16 -12 18 -32 2 -20 8 -32 16 -30 6 1 12 -5 12 -13 0 -8 6 -15 13 -15 9 0 14
-16 16 -48 4 -104 8 -142 14 -148 4 -4 7 -16 7 -26 0 -10 7 -18 15 -18 10 0
15 -10 15 -30 0 -16 -4 -30 -10 -30 -14 0 -13 -33 1 -47 16 -16 4 -43 -18 -43
-15 0 -16 2 -3 11 12 8 11 10 -5 7 -16 -3 -20 -11 -21 -43 -1 -22 4 -43 10
-47 7 -5 5 -8 -6 -8 -28 0 -48 11 -48 29 0 9 -15 22 -32 30 -18 8 -42 22 -53
31 -28 24 -55 32 -56 17 -2 -18 -2 -19 6 -57 l7 -35 -21 19 c-15 13 -18 23
-11 30 14 14 12 26 -5 26 -8 0 -15 8 -15 18 -1 9 -10 28 -21 41 -17 21 -23 23
-40 13 -16 -10 -24 -10 -42 3 -12 8 -16 15 -9 15 29 0 6 23 -81 81 -59 39 -93
68 -94 80 -1 11 2 17 6 15 4 -3 22 8 39 23 34 31 34 51 0 106 -10 17 -18 38
-18 48 0 9 -4 17 -10 17 -5 0 -10 10 -10 23 0 12 -7 31 -15 41 -8 11 -15 29
-15 40 0 19 1 18 25 -4 13 -12 22 -27 18 -33 -3 -5 1 -13 8 -18 10 -6 11 -9 2
-9 -23 0 -14 -18 12 -24 14 -4 31 -17 37 -30 6 -15 16 -22 24 -19 15 6 19 33
6 33 -5 0 -18 19 -28 42 -20 44 -21 49 -23 86 -1 12 -7 22 -16 22 -8 0 -15 7
-15 16 0 8 -4 12 -10 9 -6 -3 -7 1 -4 10 4 8 2 21 -4 28 -19 24 -62 108 -62
122 0 7 -5 15 -12 17 -6 2 -12 14 -13 26 -2 21 -1 21 20 -2 12 -13 25 -31 28
-40 4 -9 11 -16 17 -16 5 0 10 -7 10 -16 0 -24 24 -11 31 17 3 14 0 31 -8 40
-8 9 -15 28 -16 42 -1 15 -11 33 -22 40 -13 10 -19 26 -18 51 1 20 -3 39 -8
42 -5 3 -9 11 -9 17 0 7 8 2 18 -11 14 -17 20 -20 29 -11z"/>
<path d="M6990 6371 l-55 -6 -3 -52 -3 -53 49 0 c27 0 64 3 81 6 31 7 32 8 29
58 -3 58 -3 57 -98 47z"/>
<path d="M3516 1507 c10 -26 95 -88 162 -118 99 -45 104 -47 145 -53 33 -4 37
-3 26 10 -6 8 -9 17 -6 21 8 7 38 -17 33 -26 -2 -3 20 -7 49 -7 53 -2 53 -1
43 22 -13 27 -19 29 -36 12 -15 -15 -42 7 -42 36 -1 19 -2 19 -13 4 -16 -21
-33 -24 -77 -14 -37 9 -61 21 -99 49 -13 9 -32 17 -43 17 -17 0 -79 24 -130
51 -13 7 -16 6 -12 -4z"/>
<path d="M3866 10137 c54 -56 118 -125 142 -152 l44 -50 -7 53 c-5 43 -3 52
10 52 9 0 18 -7 21 -15 4 -8 16 -15 29 -15 23 0 35 -17 35 -51 0 -19 1 -19 31
-3 21 10 28 19 20 23 -6 4 -14 20 -16 34 -3 15 -7 39 -10 55 -3 15 0 40 7 55
9 23 8 31 -2 37 -11 7 -12 14 -2 35 7 14 12 30 12 35 0 16 -353 13 -369 -2
-11 -10 -13 -10 -7 0 5 8 0 12 -15 12 -19 0 -4 -19 77 -103z"/>
<path d="M4259 10225 c-1 -8 -2 -21 -3 -27 -1 -7 6 -13 14 -13 11 0 17 -17 23
-65 4 -36 12 -78 17 -95 l8 -30 1 28 c1 15 5 35 10 45 5 9 12 25 15 35 3 10
11 15 17 12 6 -4 17 2 25 14 11 15 26 21 54 21 21 0 40 -5 42 -10 2 -7 17 -5
41 5 20 8 37 11 37 6 0 -5 9 -11 21 -14 18 -5 19 -8 7 -26 -21 -33 2 -47 44
-26 18 9 100 46 183 81 82 36 151 67 154 70 2 2 -156 4 -352 4 -310 0 -357 -2
-358 -15z"/>
<path d="M6766 9938 c-7 -78 -8 -1163 -1 -1156 2 2 6 190 9 418 3 228 9 504
12 613 4 128 3 197 -3 197 -6 0 -13 -33 -17 -72z"/>
</g>
</svg>
